<mxfile host="65bd71144e">
    <diagram id="dPa3eCRp1KqCvTpyh3m8" name="Page-1">
        <mxGraphModel dx="1102" dy="800" grid="0" gridSize="10" guides="1" tooltips="1" connect="1" arrows="1" fold="1" page="1" pageScale="1" pageWidth="1169" pageHeight="827" math="0" shadow="0">
            <root>
                <mxCell id="0"/>
                <mxCell id="1" parent="0"/>
                <mxCell id="23" value="&lt;span style=&quot;font-size: 12px ; background-color: rgb(248 , 249 , 250)&quot;&gt;window load&lt;/span&gt;" style="edgeStyle=orthogonalEdgeStyle;rounded=0;orthogonalLoop=1;jettySize=auto;html=1;exitX=0.5;exitY=1;exitDx=0;exitDy=0;entryX=0.5;entryY=0;entryDx=0;entryDy=0;" parent="1" source="2" target="63" edge="1">
                    <mxGeometry relative="1" as="geometry">
                        <mxPoint x="260" y="80" as="targetPoint"/>
                    </mxGeometry>
                </mxCell>
                <mxCell id="2" value="" style="ellipse;fillColor=#000000;strokeColor=none;" parent="1" vertex="1">
                    <mxGeometry x="460" width="30" height="30" as="geometry"/>
                </mxCell>
                <mxCell id="63" value="start" style="swimlane;fontStyle=4;align=center;verticalAlign=top;childLayout=stackLayout;horizontal=1;startSize=37;horizontalStack=0;resizeParent=1;resizeParentMax=0;resizeLast=0;collapsible=0;marginBottom=0;html=1;rounded=1;absoluteArcSize=1;arcSize=25;" parent="1" vertex="1">
                    <mxGeometry x="405" y="80" width="140" height="57" as="geometry"/>
                </mxCell>
                <mxCell id="118" value="hentData" style="swimlane;fontStyle=4;align=center;verticalAlign=top;childLayout=stackLayout;horizontal=1;startSize=37;horizontalStack=0;resizeParent=1;resizeParentMax=0;resizeLast=0;collapsible=0;marginBottom=0;html=1;rounded=1;absoluteArcSize=1;arcSize=25;" vertex="1" parent="1">
                    <mxGeometry x="114" y="373" width="190" height="97" as="geometry"/>
                </mxCell>
                <mxCell id="119" value="F책 1 point" style="fillColor=none;strokeColor=none;align=left;verticalAlign=middle;spacingLeft=5;" vertex="1" parent="118">
                    <mxGeometry y="37" width="190" height="20" as="geometry"/>
                </mxCell>
                <mxCell id="120" value="Skriv point ud" style="fillColor=none;strokeColor=none;align=left;verticalAlign=middle;spacingLeft=5;" vertex="1" parent="118">
                    <mxGeometry y="57" width="190" height="20" as="geometry"/>
                </mxCell>
                <mxCell id="121" value="Start goodForsvind -animation" style="fillColor=none;strokeColor=none;align=left;verticalAlign=middle;spacingLeft=5;" vertex="1" parent="118">
                    <mxGeometry y="77" width="190" height="20" as="geometry"/>
                </mxCell>
                <mxCell id="122" value="popup" style="swimlane;fontStyle=4;align=center;verticalAlign=top;childLayout=stackLayout;horizontal=1;startSize=37;horizontalStack=0;resizeParent=1;resizeParentMax=0;resizeLast=0;collapsible=0;marginBottom=0;html=1;rounded=1;absoluteArcSize=1;arcSize=25;" vertex="1" parent="1">
                    <mxGeometry x="394" y="377" width="190" height="97" as="geometry"/>
                </mxCell>
                <mxCell id="123" value="F책 1 point" style="fillColor=none;strokeColor=none;align=left;verticalAlign=middle;spacingLeft=5;" vertex="1" parent="122">
                    <mxGeometry y="37" width="190" height="20" as="geometry"/>
                </mxCell>
                <mxCell id="124" value="Skriv point ud" style="fillColor=none;strokeColor=none;align=left;verticalAlign=middle;spacingLeft=5;" vertex="1" parent="122">
                    <mxGeometry y="57" width="190" height="20" as="geometry"/>
                </mxCell>
                <mxCell id="125" value="Start goodForsvind -animation" style="fillColor=none;strokeColor=none;align=left;verticalAlign=middle;spacingLeft=5;" vertex="1" parent="122">
                    <mxGeometry y="77" width="190" height="20" as="geometry"/>
                </mxCell>
                <mxCell id="126" value="vis" style="swimlane;fontStyle=4;align=center;verticalAlign=top;childLayout=stackLayout;horizontal=1;startSize=37;horizontalStack=0;resizeParent=1;resizeParentMax=0;resizeLast=0;collapsible=0;marginBottom=0;html=1;rounded=1;absoluteArcSize=1;arcSize=25;" vertex="1" parent="1">
                    <mxGeometry x="409" y="232" width="190" height="97" as="geometry"/>
                </mxCell>
                <mxCell id="127" value="F책 1 point" style="fillColor=none;strokeColor=none;align=left;verticalAlign=middle;spacingLeft=5;" vertex="1" parent="126">
                    <mxGeometry y="37" width="190" height="20" as="geometry"/>
                </mxCell>
                <mxCell id="128" value="Skriv point ud" style="fillColor=none;strokeColor=none;align=left;verticalAlign=middle;spacingLeft=5;" vertex="1" parent="126">
                    <mxGeometry y="57" width="190" height="20" as="geometry"/>
                </mxCell>
                <mxCell id="129" value="Start goodForsvind -animation" style="fillColor=none;strokeColor=none;align=left;verticalAlign=middle;spacingLeft=5;" vertex="1" parent="126">
                    <mxGeometry y="77" width="190" height="20" as="geometry"/>
                </mxCell>
                <mxCell id="132" value="filtrerSko" style="swimlane;fontStyle=4;align=center;verticalAlign=top;childLayout=stackLayout;horizontal=1;startSize=37;horizontalStack=0;resizeParent=1;resizeParentMax=0;resizeLast=0;collapsible=0;marginBottom=0;html=1;rounded=1;absoluteArcSize=1;arcSize=25;" vertex="1" parent="1">
                    <mxGeometry x="111" y="232" width="190" height="97" as="geometry"/>
                </mxCell>
                <mxCell id="133" value="F책 1 point" style="fillColor=none;strokeColor=none;align=left;verticalAlign=middle;spacingLeft=5;" vertex="1" parent="132">
                    <mxGeometry y="37" width="190" height="20" as="geometry"/>
                </mxCell>
                <mxCell id="134" value="Skriv point ud" style="fillColor=none;strokeColor=none;align=left;verticalAlign=middle;spacingLeft=5;" vertex="1" parent="132">
                    <mxGeometry y="57" width="190" height="20" as="geometry"/>
                </mxCell>
                <mxCell id="135" value="Start goodForsvind -animation" style="fillColor=none;strokeColor=none;align=left;verticalAlign=middle;spacingLeft=5;" vertex="1" parent="132">
                    <mxGeometry y="77" width="190" height="20" as="geometry"/>
                </mxCell>
            </root>
        </mxGraphModel>
    </diagram>
</mxfile>